<svg xmlns="http://www.w3.org/2000/svg" xmlns:xlink="http://www.w3.org/1999/xlink" viewBox="0 0 232.5 165.82"><defs><style>.cls-1{isolation:isolate;}.cls-2{fill:url(#Degradado_sin_nombre_24);}.cls-3,.cls-6{mix-blend-mode:multiply;}.cls-3{fill:url(#Degradado_sin_nombre_52);}.cls-4{fill:url(#Degradado_sin_nombre_43);}.cls-5{fill:url(#Degradado_sin_nombre_39);}.cls-6{fill:url(#Degradado_sin_nombre_49);}.cls-7{fill:url(#Degradado_sin_nombre_41);}.cls-8{fill:url(#Degradado_sin_nombre_33);}.cls-9{fill:url(#Degradado_sin_nombre_54);}.cls-10{fill:url(#Degradado_sin_nombre_36);}</style><linearGradient id="Degradado_sin_nombre_24" x1="357.32" y1="130.04" x2="357.32" y2="290.13" gradientTransform="translate(261.46 541.25) rotate(-138.55)" gradientUnits="userSpaceOnUse"><stop offset="0" stop-color="#ff2ef6"/><stop offset="1" stop-color="#a42ef6"/></linearGradient><linearGradient id="Degradado_sin_nombre_52" x1="361.63" y1="183.8" x2="361.63" y2="319.55" gradientTransform="translate(370.93 498.31) rotate(-158.55)" gradientUnits="userSpaceOnUse"><stop offset="0" stop-color="#962aea"/><stop offset="0.05" stop-color="#9b2ae8" stop-opacity="0.92"/><stop offset="0.25" stop-color="#ab28e1" stop-opacity="0.64"/><stop offset="0.44" stop-color="#b926db" stop-opacity="0.41"/><stop offset="0.61" stop-color="#c325d7" stop-opacity="0.24"/><stop offset="0.77" stop-color="#cb25d4" stop-opacity="0.11"/><stop offset="0.9" stop-color="#cf24d2" stop-opacity="0.03"/><stop offset="1" stop-color="#d124d1" stop-opacity="0"/><stop offset="1" stop-color="#d124d1"/></linearGradient><linearGradient id="Degradado_sin_nombre_43" x1="340.79" y1="183.8" x2="340.79" y2="281.25" gradientTransform="translate(370.93 498.31) rotate(-158.55)" gradientUnits="userSpaceOnUse"><stop offset="0" stop-color="#d124d1"/><stop offset="1" stop-color="#962aea"/></linearGradient><linearGradient id="Degradado_sin_nombre_39" x1="374.06" y1="183.8" x2="374.06" y2="343.9" gradientTransform="translate(370.93 498.31) rotate(-158.55)" gradientUnits="userSpaceOnUse"><stop offset="0" stop-color="#ff881d"/><stop offset="1" stop-color="#ffeb33"/></linearGradient><linearGradient id="Degradado_sin_nombre_49" x1="406.3" y1="183.8" x2="406.3" y2="343.89" gradientTransform="translate(370.93 498.31) rotate(-158.55)" gradientUnits="userSpaceOnUse"><stop offset="0" stop-color="#db6e14"/><stop offset="1" stop-color="#fb3" stop-opacity="0"/></linearGradient><linearGradient id="Degradado_sin_nombre_41" x1="361.85" y1="183.8" x2="361.85" y2="334.41" gradientTransform="translate(370.93 498.31) rotate(-158.55)" gradientUnits="userSpaceOnUse"><stop offset="0" stop-color="#db6e14"/><stop offset="1" stop-color="#fb3"/></linearGradient><linearGradient id="Degradado_sin_nombre_33" x1="365.71" y1="257.26" x2="365.71" y2="417.35" gradientTransform="translate(481.19 387.7) rotate(174.81)" gradientUnits="userSpaceOnUse"><stop offset="0" stop-color="#33d4ff"/><stop offset="1" stop-color="#3f57e8"/></linearGradient><linearGradient id="Degradado_sin_nombre_54" x1="432.47" y1="183.8" x2="432.47" y2="376.42" gradientTransform="translate(370.93 498.31) rotate(-158.55)" gradientUnits="userSpaceOnUse"><stop offset="0" stop-color="#7be6ff"/><stop offset="1" stop-color="#3f57e8"/></linearGradient><linearGradient id="Degradado_sin_nombre_36" x1="406.01" y1="183.8" x2="406.01" y2="376.42" gradientTransform="translate(370.93 498.31) rotate(-158.55)" gradientUnits="userSpaceOnUse"><stop offset="0" stop-color="#23a6e8"/><stop offset="1" stop-color="#385ed6"/></linearGradient></defs><title>favicon</title><g class="cls-1"><g id="OBJECTS"><path class="cls-2" d="M237.61,151.71c-53.16,60.19-133.24-58-200.35,18C54.84,77.22,109.62,60.53,150.9,69.41,198.87,79.72,237.61,151.71,237.61,151.71Z" transform="translate(-5.12 -3.9)"/><path class="cls-3" d="M211.83,113.92c-15.65-19.14-37.15-39.4-60.93-44.51-41.28-8.88-96.06,7.81-113.64,100.31C76,87.4,168.54,152.31,211.83,113.92Z" transform="translate(-5.12 -3.9)"/><path class="cls-4" d="M37.26,169.72c67.11-76,147.19,42.18,200.35-18,0,0-2.18-4.06-6.15-10.37C182.28,194.33,96.62,91.08,37.26,169.72Z" transform="translate(-5.12 -3.9)"/><path class="cls-5" d="M219.37,84.26C190,159,74.33,75.37,37.26,169.72,22.14,76.79,67.9,42.36,109.73,36.59,158.34,29.87,219.37,84.26,219.37,84.26Z" transform="translate(-5.12 -3.9)"/><path class="cls-6" d="M164.32,48c-17.47-8.21-36.85-13.89-54.59-11.44C67.9,42.36,22.14,76.79,37.26,169.72,34.76,82.93,136.52,93.62,164.32,48Z" transform="translate(-5.12 -3.9)"/><path class="cls-7" d="M37.26,169.72C74.33,75.37,190,159,219.37,84.26c0,0-4.29-3.81-11.49-9.3C180,139.92,64.34,75.65,37.26,169.72Z" transform="translate(-5.12 -3.9)"/><path class="cls-8" d="M161.7,11.67C169,91.65,28.08,68.76,37.26,169.72-17.93,93.43,7.53,42.15,42.33,18.22,82.76-9.58,161.7,11.67,161.7,11.67Z" transform="translate(-5.12 -3.9)"/><path class="cls-9" d="M37.26,169.72C-5.53,85.85,27.51,39.09,65.58,20.81c28.74-13.81,70.34-4.66,96,3.45a59,59,0,0,0,.15-12.59S82.76-9.58,42.33,18.22C7.53,42.15-17.93,93.43,37.26,169.72Z" transform="translate(-5.12 -3.9)"/><path class="cls-10" d="M37.26,169.72C28.08,68.76,169,91.65,161.7,11.67c0,0-8.47-2.28-21.28-4.37C143.09,74.25,15.49,75.93,37.26,169.72Z" transform="translate(-5.12 -3.9)"/></g></g></svg>